<?xml version="1.0" standalone="no"?>
<!DOCTYPE svg PUBLIC "-//W3C//DTD SVG 20010904//EN"
 "http://www.w3.org/TR/2001/REC-SVG-20010904/DTD/svg10.dtd">
<svg version="1.0" xmlns="http://www.w3.org/2000/svg"
 width="319.000000pt" height="319.000000pt" viewBox="0 0 319.000000 319.000000"
 preserveAspectRatio="xMidYMid meet">
<metadata>
Created by potrace 1.11, written by Peter Selinger 2001-2013
</metadata>
<g transform="translate(0.000000,319.000000) scale(0.100000,-0.100000)"
fill="#000000" stroke="none">
<path d="M885 3137 c-115 -60 -176 -100 -260 -170 -259 -218 -412 -491 -463
-827 -9 -61 -9 -291 1 -365 37 -280 214 -672 459 -1018 72 -101 208 -275 263
-337 18 -19 58 -64 90 -100 31 -36 109 -116 171 -178 l114 -112 330 0 331 0
118 118 c138 136 260 273 372 415 45 56 88 111 97 122 22 27 192 282 192 288
0 3 17 34 39 68 112 187 241 505 266 664 3 17 8 46 11 65 11 68 13 316 4 370
-31 178 -70 301 -133 420 -138 261 -380 490 -641 605 l-57 25 -602 0 -602 -1
-100 -52z"/>
</g>
</svg>
